#!OML:ASF E:\emotionWalksFemale\Project 1\Capture day 1\Session 1\Female1.ASF
:FULLY-SPECIFIED
:DEGREES
350
root 8.0106 15.076 42.1792 -180.592 1.57602 -179.218
lowerback 6.11221 2.06681 0.696369
upperback -3.41476 2.86129 -0.231469
thorax -6.95324 1.38674 -0.978061
lowerneck -4.91782 -2.129 -5.77202
upperneck 16.3227 -3.85995 5.2649
head 5.93906 -2.14836 2.33461
rclavicle 3.50358e-015 -1.59028e-015
rhumerus -47.9683 18.6301 -102.547
rradius 36.5776
rwrist 2.96545
rhand 161.197 -70.2484
rfingers 7.12502
rthumb -172.505 -40.4012
lclavicle 3.50358e-015 -1.59028e-015
lhumerus -46.3061 -7.42267 92.5299
lradius 39.2073
lwrist -8.99472
lhand -0.935715 -37.366
lfingers 7.12502
lthumb 24.6938 -8.93954
rfemur -7.97926 13.4545 23.9101
rtibia 30.8403
rfoot -23.4217 -22.6538
rtoes -0.0439723
lfemur -7.83707 -20.3771 -27.4432
ltibia 29.8456
lfoot -27.1731 22.267
ltoes -25.0801
351
root 8.0061 15.0791 42.1728 -180.499 1.32411 -179.207
lowerback 5.92907 1.98394 0.691273
upperback -3.40153 2.74966 -0.228201
thorax -6.83581 1.33409 -0.950548
lowerneck -4.80245 -2.11466 -5.99218
upperneck 16.1329 -3.85694 5.58211
head 5.86841 -2.13638 2.4738
rclavicle 1.97667e-014 6.95746e-015
rhumerus -47.997 18.7391 -102.565
rradius 36.6478
rwrist 2.88845
rhand 161.289 -69.9938
rfingers 7.12502
rthumb -172.416 -40.1498
lclavicle 1.97667e-014 6.95746e-015
lhumerus -46.2531 -7.29078 92.4652
lradius 39.2398
lwrist -8.76839
lhand -0.213041 -37.3056
lfingers 7.12502
lthumb 25.3863 -8.97566
rfemur -8.03337 13.4007 23.9146
rtibia 30.8871
rfoot -23.6333 -22.7435
rtoes 0.181499
lfemur -7.904 -20.4903 -27.4066
ltibia 29.7912
lfoot -27.1014 22.003
ltoes -25.3994
352
root 8.00297 15.073 42.1724 -180.768 1.2168 -179.257
lowerback 6.17578 1.97485 0.659349
upperback -3.28374 2.72565 -0.274811
thorax -6.85253 1.31947 -0.985366
lowerneck -4.74405 -2.1043 -6.044
upperneck 15.9919 -3.85663 5.77429
head 5.81805 -2.12395 2.54426
rclavicle -1.42628e-014 -7.35503e-015
rhumerus -47.9179 18.7792 -102.609
rradius 36.6402
rwrist 2.90885
rhand 161.477 -69.7116
rfingers 7.12502
rthumb -172.235 -39.8742
lclavicle -1.42628e-014 -7.35503e-015
lhumerus -46.1165 -7.0949 92.3215
lradius 39.0725
lwrist -9.36154
lhand -0.425451 -37.3677
lfingers 7.12502
lthumb 25.1828 -9.00907
rfemur -7.72453 13.4445 23.9498
rtibia 30.9331
rfoot -23.6502 -22.8863
rtoes -0.111738
lfemur -7.5889 -20.4481 -27.5678
ltibia 29.7575
lfoot -27.0987 21.7392
ltoes -25.1723
353
root 7.99815 15.0709 42.1669 -180.809 1.0547 -179.346
lowerback 6.11014 1.96616 0.612549
upperback -3.2031 2.70196 -0.346033
thorax -6.72807 1.30865 -1.02568
lowerneck -4.84709 -2.12001 -5.96022
upperneck 16.0067 -3.88235 5.80171
head 5.84105 -2.12622 2.53618
rclavicle 9.97651e-015 7.95139e-015
rhumerus -47.7362 18.6132 -102.547
rradius 36.5721
rwrist 3.04529
rhand 161.474 -69.6121
rfingers 7.12502
rthumb -172.237 -39.7746
lclavicle 9.97651e-015 7.95139e-015
lhumerus -45.9654 -7.10246 92.2606
lradius 38.9238
lwrist -9.80515
lhand -1.04701 -37.374
lfingers 7.12502
lthumb 24.5871 -8.93292
rfemur -7.64676 13.355 23.8612
rtibia 30.9658
rfoot -23.5704 -22.9785
rtoes 0.434074
lfemur -7.51619 -20.4641 -27.6933
ltibia 29.7159
lfoot -27.0579 21.6253
ltoes -25.094
354
root 7.99209 15.0684 42.1607 -180.969 0.719538 -179.392
lowerback 6.18764 1.88679 0.646489
upperback -3.10288 2.59138 -0.397213
thorax -6.66452 1.25056 -1.08542
lowerneck -4.96517 -2.15683 -5.84492
upperneck 16.0298 -3.92699 5.75106
head 5.86868 -2.14048 2.49652
rclavicle 1.9133e-015 -1.59028e-015
rhumerus -47.6236 18.3777 -102.421
rradius 36.5886
rwrist 3.15063
rhand 161.47 -69.5542
rfingers 7.12502
rthumb -172.241 -39.7166
lclavicle 1.9133e-015 -1.59028e-015
lhumerus -45.8644 -7.29835 92.3056
lradius 38.9141
lwrist -9.75936
lhand -1.25207 -37.2976
lfingers 7.12502
lthumb 24.3906 -8.82992
rfemur -7.40167 13.1285 23.8489
rtibia 31.0252
rfoot -23.7982 -23.0159
rtoes 1.48115
lfemur -7.30967 -20.5201 -27.823
ltibia 29.7013
lfoot -26.9278 21.5101
ltoes -25.5611
355
root 7.98986 15.0762 42.1548 -180.609 0.756191 -179.365
lowerback 5.85146 1.89089 0.578719
upperback -3.20433 2.59764 -0.369169
thorax -6.58269 1.26089 -1.00844
lowerneck -5.0294 -2.17238 -5.74469
upperneck 16.05 -3.92883 5.60033
head 5.88203 -2.14321 2.43114
rclavicle -9.87711e-015 -1.39149e-015
rhumerus -47.6395 18.3869 -102.391
rradius 36.6529
rwrist 3.1332
rhand 161.517 -69.578
rfingers 7.12502
rthumb -172.196 -39.742
lclavicle -9.87711e-015 -1.39149e-015
lhumerus -45.8777 -7.39014 92.3798
lradius 38.9397
lwrist -9.7446
lhand -1.33945 -37.2087
lfingers 7.12502
lthumb 24.3068 -8.7298
rfemur -7.78344 13.1872 23.7781
rtibia 31.0483
rfoot -23.9394 -22.9118
rtoes 1.51257
lfemur -7.69541 -20.5051 -27.6636
ltibia 29.7112
lfoot -26.9094 21.5011
ltoes -25.6565
356
root 7.98013 15.0698 42.1572 -180.644 1.09725 -179.375
lowerback 6.07794 1.97933 0.584342
upperback -3.24787 2.71916 -0.346113
thorax -6.75804 1.31887 -1.01198
lowerneck -5.08702 -2.12598 -5.80597
upperneck 16.1325 -3.86008 5.58616
head 5.91457 -2.11483 2.44103
rclavicle -1.4561e-014 1.98785e-015
rhumerus -47.6449 18.4822 -102.402
rradius 36.6164
rwrist 3.1158
rhand 161.496 -69.7302
rfingers 7.12502
rthumb -172.217 -39.8935
lclavicle -1.4561e-014 1.98785e-015
lhumerus -46.0256 -7.46248 92.4815
lradius 39.0666
lwrist -9.66695
lhand -1.54528 -36.9299
lfingers 7.12502
lthumb 24.1095 -8.42467
rfemur -7.86083 13.2337 23.6749
rtibia 31.0658
rfoot -23.6036 -22.6927
rtoes 0.904358
lfemur -7.6649 -20.4801 -27.7669
ltibia 29.7569
lfoot -27.0908 21.6848
ltoes -24.824
357
root 7.9743 15.064 42.1547 -180.684 1.06972 -179.375
lowerback 6.19247 1.99009 0.608407
upperback -3.26702 2.73426 -0.380779
thorax -6.84134 1.32331 -1.06874
lowerneck -5.1761 -2.03749 -6.06397
upperneck 16.3423 -3.79723 5.97392
head 6.00225 -2.079 2.61098
rclavicle 2.69602e-015 1.98785e-016
rhumerus -47.6182 18.3585 -102.407
rradius 36.5358
rwrist 3.19342
rhand 161.517 -69.8762
rfingers 7.12502
rthumb -172.196 -40.0402
lclavicle 2.69602e-015 1.98785e-016
lhumerus -46.0903 -7.64712 92.5062
lradius 39.085
lwrist -9.57717
lhand -1.80603 -36.6918
lfingers 7.12502
lthumb 23.8594 -8.15371
rfemur -7.81371 13.2348 23.6623
rtibia 31.0695
rfoot -23.4102 -22.8187
rtoes 0.716393
lfemur -7.6388 -20.446 -27.8076
ltibia 29.8021
lfoot -27.0925 21.6534
ltoes -24.753
358
root 7.96809 15.0638 42.1542 -180.585 1.26532 -179.331
lowerback 6.23885 2.09226 0.679379
upperback -3.35296 2.8788 -0.422754
thorax -6.9511 1.38991 -1.17403
lowerneck -4.95548 -2.11498 -5.85125
upperneck 16.1269 -3.90388 5.8629
head 5.89761 -2.12701 2.53471
rclavicle -2.95941e-014 3.77691e-015
rhumerus -47.6994 18.2753 -102.483
rradius 36.5369
rwrist 3.06531
rhand 161.341 -70.0604
rfingers 7.12502
rthumb -172.366 -40.2182
lclavicle -2.95941e-014 3.77691e-015
lhumerus -46.0401 -7.81414 92.4718
lradius 39.0165
lwrist -9.24524
lhand -1.23642 -36.7304
lfingers 7.12502
lthumb 24.4056 -8.26476
rfemur -7.96124 13.2994 23.6381
rtibia 31.0863
rfoot -23.407 -22.6902
rtoes 1.37253
lfemur -7.78738 -20.2813 -27.7428
ltibia 29.86
lfoot -27.1356 21.6623
ltoes -24.9313
359
root 7.96126 15.068 42.151 -180.342 1.44483 -179.306
lowerback 6.10481 2.141 0.707742
upperback -3.46977 2.95281 -0.419056
thorax -6.99527 1.42694 -1.1925
lowerneck -4.97879 -2.03984 -6.01277
upperneck 16.2634 -3.81884 5.97839
head 5.94358 -2.0917 2.60415
rclavicle -1.00759e-014 -2.5842e-015
rhumerus -47.8323 18.4079 -102.579
rradius 36.5803
rwrist 2.77346
rhand 160.987 -70.2164
rfingers 7.12502
rthumb -172.707 -40.3621
lclavicle -1.00759e-014 -2.5842e-015
lhumerus -46.1385 -8.07162 92.6449
lradius 38.9577
lwrist -9.50053
lhand -2.13831 -36.8326
lfingers 7.12502
lthumb 23.5407 -8.25326
rfemur -8.26023 13.3239 23.5478
rtibia 31.0755
rfoot -23.4374 -22.4845
rtoes 1.38251
lfemur -8.08296 -20.1798 -27.6498
ltibia 29.9003
lfoot -27.2462 21.6375
ltoes -24.6932
